G04 #@! TF.FileFunction,Soldermask,Bot*
%FSLAX46Y46*%
G04 Gerber Fmt 4.6, Leading zero omitted, Abs format (unit mm)*
G04 Created by KiCad (PCBNEW 4.0.5+dfsg1-4) date Mon Apr 17 17:31:13 2017*
%MOMM*%
%LPD*%
G01*
G04 APERTURE LIST*
%ADD10C,0.100000*%
%ADD11O,2.432000X2.127200*%
%ADD12C,4.210000*%
%ADD13R,2.200000X2.200000*%
%ADD14C,2.200000*%
%ADD15R,1.300000X2.100000*%
%ADD16R,1.924000X2.432000*%
%ADD17O,2.899360X4.400500*%
%ADD18O,3.414980X1.906220*%
%ADD19C,7.400000*%
G04 APERTURE END LIST*
D10*
D11*
X93980000Y-43180000D03*
X93980000Y-45720000D03*
X93980000Y-48260000D03*
X93980000Y-50800000D03*
X93980000Y-53340000D03*
X93980000Y-55880000D03*
X93980000Y-58420000D03*
X93980000Y-60960000D03*
X93980000Y-63500000D03*
X93980000Y-66040000D03*
X93980000Y-68580000D03*
X93980000Y-71120000D03*
X93980000Y-73660000D03*
X93980000Y-76200000D03*
X93980000Y-78740000D03*
X116840000Y-43180000D03*
X116840000Y-73660000D03*
X116840000Y-76200000D03*
X116840000Y-71120000D03*
X116840000Y-55880000D03*
X116840000Y-53340000D03*
X116840000Y-58420000D03*
X116840000Y-78740000D03*
X116840000Y-63500000D03*
X116840000Y-60960000D03*
X116840000Y-66040000D03*
X116840000Y-68580000D03*
X116840000Y-48260000D03*
X116840000Y-50800000D03*
X116840000Y-45720000D03*
D12*
X62230000Y-48133000D03*
X62230000Y-73533000D03*
D13*
X64770000Y-66421000D03*
D14*
X64770000Y-63627000D03*
X64770000Y-60960000D03*
X64770000Y-58166000D03*
X64770000Y-55372000D03*
X62230000Y-65024000D03*
X62230000Y-62230000D03*
X62230000Y-59563000D03*
X62230000Y-56769000D03*
D15*
X69670000Y-62230000D03*
X72570000Y-62230000D03*
X69670000Y-58420000D03*
X72570000Y-58420000D03*
X69670000Y-54610000D03*
X72570000Y-54610000D03*
D16*
X74549000Y-62230000D03*
X77851000Y-62230000D03*
X74549000Y-58420000D03*
X77851000Y-58420000D03*
X74549000Y-54610000D03*
X77851000Y-54610000D03*
D17*
X73660000Y-47419260D03*
X73660000Y-69420740D03*
D18*
X90170000Y-68580000D03*
X90170000Y-66040000D03*
X90170000Y-63500000D03*
D19*
X53340000Y-81280000D03*
X107950000Y-81280000D03*
X107950000Y-40640000D03*
X53340000Y-40640000D03*
M02*
