M48
;DRILL file {KiCad 4.0.5+dfsg1-4} date Mon Apr 17 17:31:17 2017
;FORMAT={-:-/ absolute / inch / decimal}
FMAT,2
INCH,TZ
T1C0.039
T2C0.040
T3C0.059
T4C0.120
T5C0.138
%
G90
G05
M72
T1
X3.55Y-2.5
X3.55Y-2.6
X3.55Y-2.7
T2
X2.45Y-2.235
X2.45Y-2.345
X2.45Y-2.45
X2.45Y-2.56
X2.55Y-2.18
X2.55Y-2.29
X2.55Y-2.4
X2.55Y-2.505
X2.55Y-2.615
X3.7Y-1.7
X3.7Y-1.8
X3.7Y-1.9
X3.7Y-2.
X3.7Y-2.1
X3.7Y-2.2
X3.7Y-2.3
X3.7Y-2.4
X3.7Y-2.5
X3.7Y-2.6
X3.7Y-2.7
X3.7Y-2.8
X3.7Y-2.9
X3.7Y-3.
X3.7Y-3.1
X4.6Y-1.7
X4.6Y-1.8
X4.6Y-1.9
X4.6Y-2.
X4.6Y-2.1
X4.6Y-2.2
X4.6Y-2.3
X4.6Y-2.4
X4.6Y-2.5
X4.6Y-2.6
X4.6Y-2.7
X4.6Y-2.8
X4.6Y-2.9
X4.6Y-3.
X4.6Y-3.1
T3
X2.9Y-1.8669
X2.9Y-2.7331
T4
X2.45Y-1.895
X2.45Y-2.895
T5
X2.1Y-1.6
X2.1Y-3.2
X4.25Y-1.6
X4.25Y-3.2
T0
M30
